<svg xmlns="http://www.w3.org/2000/svg" width="160" height="54" version="1.2"><g id="layer1" transform="translate(0,-6)"><rect id="rect3101" width="156" height="50" x="2" y="8" ry="4.5" style="fill:#3367d6;fill-opacity:1"/></g><g id="layer2"><text id="text4303" x="52.473" y="31.977" xml:space="preserve" style="font-size:13px;font-style:normal;font-weight:400;line-height:100%;letter-spacing:1px;word-spacing:2px;fill:#fff;fill-opacity:1;stroke:none;font-family:Roboto,Sans;user-select:none">GUIDE ME</text><g id="g3949" transform="matrix(1.1349981,0,0,1.1349981,16.464659,15.380023)" style="fill:#fff"><path id="path3937" d="M 21,2 H 3 C 1.9,2 1,2.9 1,4 v 11.9 c 0,1.1 0.9,2 2,2 h 7 V 20 H 8 v 2 h 8 v -2 h -2 v -2.2 h 7 c 1.1,0 2,-0.9 2,-2 V 4 C 23,2.9 22.1,2 21,2 z m -4,13 h -4 v -2 h 4 v 2 z m 0.1,-4.8 -9.9,4.1 v -2.1 l 7.2,-3.1 -7.2,-3 v -2 l 9.9,4.1 v 2 z" style="fill:#fff"/><path id="path3939" d="m 10,17.8 h 4 V 20 h -4 z" style="fill:#fff"/><path id="path3941" d="m 8,20 h 8 v 2 H 8 z" style="fill:#fff"/></g></g></svg>